<svg width="55" height="43" viewBox="0 0 55 43" fill="none" xmlns="http://www.w3.org/2000/svg">
<path d="M50.4167 0H4.58333C3.36776 0 2.20197 0.503371 1.34243 1.39938C0.482886 2.29539 0 3.51063 0 4.77778L0 38.2222C0 39.4894 0.482886 40.7046 1.34243 41.6006C2.20197 42.4966 3.36776 43 4.58333 43H50.4167C51.6322 43 52.798 42.4966 53.6576 41.6006C54.5171 40.7046 55 39.4894 55 38.2222V4.77778C55 3.51063 54.5171 2.29539 53.6576 1.39938C52.798 0.503371 51.6322 0 50.4167 0ZM27.5 16.4356L9.32708 2.38889H45.6729L27.5 16.4356ZM9.16667 14.835L26.8125 28.4278C27.0087 28.5773 27.2455 28.6578 27.4885 28.6578C27.7316 28.6578 27.9683 28.5773 28.1646 28.4278L45.8333 14.835V40.6111H9.16667V14.835Z" fill="black"/>
</svg>
