<svg width="56" height="56" viewBox="0 0 56 56" fill="none" xmlns="http://www.w3.org/2000/svg">
<path d="M46.755 25.2171H38.9487V20.3488C38.9487 19.0524 39.2225 18.1733 39.684 17.6233C40.1015 17.126 41.006 16.7863 42.62 16.7863L42.6241 16.7863L47.0493 16.75L47.5452 16.7459V16.25V8.74163V8.30798L47.1159 8.24665C45.5575 8.02402 43.3776 7.91518 40.5887 7.91518C37.1958 7.91518 34.431 8.91668 32.3492 10.9601C30.2579 13.013 29.2433 15.8891 29.2433 19.5145V25.2171H22.4888H21.9888V25.7171V34.1323V34.6323H22.4888H29.2433V55.2143H10.4464C7.70206 55.2143 5.36858 54.2457 3.41856 52.2957C1.46855 50.3457 0.5 48.0122 0.5 45.2679V10.4464C0.5 7.70206 1.46855 5.36858 3.41856 3.41856C5.36858 1.46855 7.70206 0.5 10.4464 0.5H45.2679C48.0122 0.5 50.3457 1.46855 52.2957 3.41856C54.2457 5.36858 55.2143 7.70206 55.2143 10.4464V45.2679C55.2143 48.0122 54.2457 50.3457 52.2957 52.2957C50.3457 54.2457 48.0122 55.2143 45.2679 55.2143H38.9487V34.6323H45.6669H46.1064L46.1627 34.1964L47.2509 25.7812L47.3238 25.2171H46.755Z" fill="black" stroke="black"/>
</svg>
