<svg width="65" height="65" viewBox="0 0 65 65" fill="none" xmlns="http://www.w3.org/2000/svg">
<path d="M32.5 25.7833C31.1715 25.7833 29.8729 26.1772 28.7684 26.9153C27.6638 27.6533 26.8029 28.7023 26.2946 29.9296C25.7862 31.1569 25.6532 32.5074 25.9124 33.8103C26.1715 35.1133 26.8112 36.31 27.7506 37.2494C28.6899 38.1887 29.8867 38.8284 31.1896 39.0876C32.4925 39.3468 33.843 39.2137 35.0703 38.7054C36.2976 38.197 37.3466 37.3361 38.0847 36.2316C38.8227 35.127 39.2166 33.8284 39.2166 32.5C39.2166 31.6179 39.0429 30.7445 38.7054 29.9296C38.3678 29.1147 37.8731 28.3743 37.2494 27.7506C36.6257 27.1269 35.8852 26.6321 35.0703 26.2946C34.2554 25.9571 33.382 25.7833 32.5 25.7833ZM59.3937 19.1479C59.3795 17.0564 58.9943 14.984 58.2562 13.0271C57.7126 11.5951 56.8715 10.2946 55.7884 9.21153C54.7053 8.12845 53.4049 7.28735 51.9729 6.74374C50.0159 6.00562 47.9435 5.62049 45.852 5.60624C42.3583 5.41666 41.3291 5.41666 32.5 5.41666C23.6708 5.41666 22.6416 5.41666 19.1479 5.60624C17.0564 5.62049 14.984 6.00562 13.027 6.74374C11.595 7.28735 10.2946 8.12845 9.2115 9.21153C8.12842 10.2946 7.28732 11.5951 6.74371 13.0271C6.00559 14.984 5.62046 17.0564 5.60621 19.1479C5.41663 22.6417 5.41663 23.6708 5.41663 32.5C5.41663 41.3292 5.41663 42.3583 5.60621 45.8521C5.63536 47.9509 6.01997 50.0297 6.74371 52C7.28491 53.4254 8.12531 54.7184 9.20829 55.7917C10.2867 56.8812 11.59 57.7223 13.027 58.2562C14.984 58.9944 17.0564 59.3795 19.1479 59.3937C22.6416 59.5833 23.6708 59.5833 32.5 59.5833C41.3291 59.5833 42.3583 59.5833 45.852 59.3937C47.9435 59.3795 50.0159 58.9944 51.9729 58.2562C53.41 57.7223 54.7132 56.8812 55.7916 55.7917C56.8746 54.7184 57.715 53.4254 58.2562 52C58.9936 50.0334 59.3787 47.9523 59.3937 45.8521C59.5833 42.3583 59.5833 41.3292 59.5833 32.5C59.5833 23.6708 59.5833 22.6417 59.3937 19.1479ZM52.5145 40.8146C52.4276 42.4859 52.0709 44.1322 51.4583 45.6896C50.9325 46.9887 50.1509 48.1689 49.1599 49.1599C48.1689 50.1509 46.9887 50.9325 45.6895 51.4583C44.1174 52.0368 42.4619 52.3569 40.7875 52.4062C38.6479 52.4062 38.0791 52.4062 32.5 52.4062C26.9208 52.4062 26.352 52.4062 24.2125 52.4062C22.538 52.3569 20.8825 52.0368 19.3104 51.4583C17.9673 50.9592 16.7545 50.163 15.7625 49.1292C14.7811 48.1575 14.0233 46.9838 13.5416 45.6896C12.9608 44.1191 12.6495 42.4617 12.6208 40.7875C12.6208 38.6479 12.6208 38.0792 12.6208 32.5C12.6208 26.9208 12.6208 26.3521 12.6208 24.2125C12.6495 22.5383 12.9608 20.8809 13.5416 19.3104C14.0407 17.9674 14.837 16.7545 15.8708 15.7625C16.8467 14.7865 18.0192 14.0294 19.3104 13.5417C20.8825 12.9632 22.538 12.6431 24.2125 12.5937C26.352 12.5937 26.9208 12.5937 32.5 12.5937C38.0791 12.5937 38.6479 12.5937 40.7875 12.5937C42.4619 12.6431 44.1174 12.9632 45.6895 13.5417C47.0326 14.0408 48.2455 14.837 49.2375 15.8708C50.2188 16.8424 50.9766 18.0162 51.4583 19.3104C52.0368 20.8826 52.3569 22.538 52.4062 24.2125C52.4062 26.3521 52.4062 26.9208 52.4062 32.5C52.4062 38.0792 52.5958 38.6479 52.5145 40.7875V40.8146ZM48.1812 20.6646C47.8588 19.7897 47.3503 18.9953 46.691 18.336C46.0318 17.6767 45.2373 17.1683 44.3625 16.8458C43.1612 16.4294 41.8961 16.2278 40.625 16.25C38.5125 16.25 37.9166 16.25 32.5 16.25C27.0833 16.25 26.4875 16.25 24.375 16.25C23.0974 16.2625 21.832 16.5009 20.6375 16.9542C19.776 17.262 18.99 17.7496 18.3315 18.3847C17.6731 19.0198 17.1574 19.7877 16.8187 20.6375C16.4254 21.8437 16.2332 23.1064 16.25 24.375C16.25 26.4875 16.25 27.0833 16.25 32.5C16.25 37.9167 16.25 38.5125 16.25 40.625C16.2768 41.9011 16.5148 43.1641 16.9541 44.3625C17.2766 45.2373 17.785 46.0318 18.4443 46.6911C19.1036 47.3504 19.898 47.8588 20.7729 48.1812C21.9284 48.6062 23.1444 48.8439 24.375 48.8854C26.4875 48.8854 27.0833 48.8854 32.5 48.8854C37.9166 48.8854 38.5125 48.8854 40.625 48.8854C41.9026 48.8729 43.1679 48.6345 44.3625 48.1812C45.2373 47.8588 46.0318 47.3504 46.691 46.6911C47.3503 46.0318 47.8588 45.2373 48.1812 44.3625C48.6345 43.1679 48.8729 41.9026 48.8854 40.625C48.8854 38.5125 48.8854 37.9167 48.8854 32.5C48.8854 27.0833 48.8854 26.4875 48.8854 24.375C48.8862 23.0961 48.6473 21.8284 48.1812 20.6375V20.6646ZM32.5 42.8458C31.1426 42.8458 29.7986 42.578 28.5449 42.0578C27.2912 41.5375 26.1524 40.775 25.1939 39.814C24.2354 38.8529 23.4759 37.7122 22.9589 36.4571C22.4419 35.2021 22.1776 33.8573 22.1812 32.5C22.1812 30.4526 22.7887 28.4513 23.9267 26.7493C25.0647 25.0474 26.6821 23.7214 28.5741 22.9391C30.4662 22.1569 32.5478 21.9536 34.5554 22.355C36.563 22.7564 38.4064 23.7444 39.8522 25.194C41.298 26.6436 42.2812 28.4896 42.6774 30.4983C43.0735 32.5069 42.8648 34.588 42.0776 36.478C41.2903 38.3679 39.9601 39.9819 38.2552 41.1154C36.5502 42.249 34.5473 42.8512 32.5 42.8458ZM43.3333 24.1854C42.7346 24.122 42.1805 23.8393 41.7779 23.3918C41.3752 22.9442 41.1524 22.3635 41.1524 21.7614C41.1524 21.1594 41.3752 20.5787 41.7779 20.1311C42.1805 19.6836 42.7346 19.4009 43.3333 19.3375C43.932 19.4009 44.4861 19.6836 44.8887 20.1311C45.2914 20.5787 45.5142 21.1594 45.5142 21.7614C45.5142 22.3635 45.2914 22.9442 44.8887 23.3918C44.4861 23.8393 43.932 24.122 43.3333 24.1854Z" fill="black"/>
</svg>
