<svg width="65" height="65" viewBox="0 0 65 65" fill="none" xmlns="http://www.w3.org/2000/svg">
<g style="mix-blend-mode:color-burn">
<rect width="65" height="65" fill="white"/>
<path d="M55.4396 5.41667H9.56047C9.04475 5.40951 8.53266 5.50401 8.05346 5.69477C7.57426 5.88554 7.13734 6.16883 6.76763 6.52847C6.39793 6.88812 6.10269 7.31706 5.89879 7.79082C5.69488 8.26458 5.58629 8.77386 5.57922 9.28959V32.5V55.7104C5.58629 56.2262 5.69488 56.7354 5.89879 57.2092C6.10269 57.683 6.39793 58.1119 6.76763 58.4716C7.13734 58.8312 7.57426 59.1145 8.05346 59.3053C8.53266 59.496 9.04475 59.5905 9.56047 59.5834H55.4396C55.9554 59.5905 56.4675 59.496 56.9467 59.3053C57.4259 59.1145 57.8628 58.8312 58.2325 58.4716C58.6022 58.1119 58.8974 57.683 59.1013 57.2092C59.3052 56.7354 59.4138 56.2262 59.4209 55.7104V9.28959C59.4138 8.77386 59.3052 8.26458 59.1013 7.79082C58.8974 7.31706 58.6022 6.88812 58.2325 6.52847C57.8628 6.16883 57.4259 5.88554 56.9467 5.69477C56.4675 5.50401 55.9554 5.40951 55.4396 5.41667ZM21.9105 50.7542H13.7855V26.3792H21.9105V50.7542ZM17.848 22.9667C16.7274 22.9667 15.6528 22.5215 14.8604 21.7292C14.0681 20.9369 13.623 19.8622 13.623 18.7417C13.623 17.6211 14.0681 16.5465 14.8604 15.7541C15.6528 14.9618 16.7274 14.5167 17.848 14.5167C18.443 14.4492 19.0455 14.5082 19.6162 14.6897C20.1868 14.8712 20.7127 15.1713 21.1593 15.5701C21.606 15.969 21.9634 16.4577 22.208 17.0042C22.4527 17.5508 22.5792 18.1429 22.5792 18.7417C22.5792 19.3405 22.4527 19.9326 22.208 20.4791C21.9634 21.0257 21.606 21.5144 21.1593 21.9132C20.7127 22.3121 20.1868 22.6121 19.6162 22.7937C19.0455 22.9752 18.443 23.0342 17.848 22.9667ZM51.2146 50.7542H43.0896V37.6729C43.0896 34.3959 41.9251 32.2563 38.973 32.2563C38.0594 32.263 37.1697 32.5495 36.424 33.0774C35.6782 33.6052 35.1122 34.3489 34.8021 35.2083C34.5902 35.8449 34.4984 36.5153 34.5313 37.1854V50.7271H26.4063C26.4063 50.7271 26.4063 28.5729 26.4063 26.3521H34.5313V29.7917C35.2694 28.5109 36.3429 27.4558 37.6363 26.7399C38.9296 26.0241 40.3937 25.6746 41.8709 25.7292C47.2876 25.7292 51.2146 29.2229 51.2146 36.725V50.7542Z" fill="black"/>
</g>
</svg>
