<svg width="65" height="65" viewBox="0 0 65 65" fill="none" xmlns="http://www.w3.org/2000/svg">
<path d="M61.6992 49.8417C61.6992 56.3634 56.3634 61.6992 49.8417 61.6992H15.1583C8.63662 61.6992 3.30078 56.3634 3.30078 49.8417V15.1583C3.30078 8.63675 8.63662 3.30078 15.1583 3.30078H49.8417C56.3634 3.30078 61.6992 8.63675 61.6992 15.1583V49.8417Z" fill="black"/>
<path d="M36.8704 29.5882L50.9177 12.0801H46.8489L34.8366 27.0529L22.823 12.0801H9.4104L28.1296 35.4115L14.081 52.9209H18.1499L30.1634 37.9468L42.1783 52.9209H55.5909L36.8704 29.5882ZM16.0247 15.2538H21.2996L48.9753 49.747H43.7004L16.0247 15.2538Z" fill="white"/>
</svg>
